<?xml version="1.0" encoding="UTF-8"?>
<svg width="393px" height="135px" viewBox="0 0 393 135" version="1.1" xmlns="http://www.w3.org/2000/svg" xmlns:xlink="http://www.w3.org/1999/xlink">
    <title>Artboard Copy 3</title>
    <g id="Artboard-Copy-3" stroke="none" stroke-width="1" fill="none" fill-rule="evenodd">
        <rect id="Rectangle" stroke="#000000" stroke-width="2" x="47" y="64" width="45" height="32" rx="3"></rect>
        <rect id="Rectangle-Copy-2" stroke="#000000" stroke-width="2" x="217" y="64" width="45" height="32" rx="3"></rect>
        <rect id="Rectangle-Copy" stroke="#000000" stroke-width="2" x="132" y="64" width="45" height="32" rx="3"></rect>
        <rect id="Rectangle-Copy-3" stroke="#000000" stroke-width="2" x="302" y="64" width="45" height="32" rx="3"></rect>
        <path d="M72.6928013,88 L72.6928013,72.1894531 L70.3685826,72.1894531 C69.3789992,73.4654948 67.9304315,74.3085938 66.0228795,74.71875 L66.0228795,74.71875 L66.0228795,76.5644531 L66.4135045,76.5644531 C67.3249628,76.5644531 67.9125279,76.6279297 68.1761998,76.7548828 C68.4398716,76.8818359 68.6010045,77.0690104 68.6595982,77.3164062 C68.718192,77.5638021 68.7474888,78.2994792 68.7474888,79.5234375 L68.7474888,88 L72.6928013,88 Z" id="1" fill="#000000" fill-rule="nonzero"></path>
        <path d="M158.903739,88 L158.903739,85.3046875 L154.577567,85.3046875 C156.791109,82.0299479 158.124116,79.8880208 158.57659,78.8789062 C159.029064,77.8697917 159.255301,76.9127604 159.255301,76.0078125 C159.255301,74.8164062 158.853283,73.8317057 158.049247,73.0537109 C157.24521,72.2757161 156.058687,71.8867188 154.489676,71.8867188 C153.688895,71.8867188 153.002046,72.0136719 152.429129,72.2675781 C151.856213,72.5214844 151.390718,72.8958333 151.032645,73.390625 C150.674572,73.8854167 150.449963,74.3883464 150.358817,74.8994141 C150.267671,75.4104818 150.222098,76.108724 150.222098,76.9941406 L150.222098,76.9941406 L150.222098,77.5703125 L153.757254,77.5703125 L153.757254,76.0664062 C153.757254,75.3697917 153.830497,74.9042969 153.976981,74.6699219 C154.123465,74.4355469 154.346447,74.3183594 154.645926,74.3183594 C154.945405,74.3183594 155.168387,74.4241536 155.314872,74.6357422 C155.461356,74.8473307 155.534598,75.1679688 155.534598,75.5976562 C155.534598,76.1575521 155.292085,76.9371745 154.807059,77.9365234 C154.322033,78.9358724 152.793713,81.5384115 150.222098,85.7441406 L150.222098,85.7441406 L150.222098,88 L158.903739,88 Z" id="2" fill="#000000" fill-rule="nonzero"></path>
        <path d="M239.684989,88.3125 C240.785249,88.3125 241.686942,88.1318359 242.390067,87.7705078 C243.093192,87.4091797 243.587984,86.8818359 243.874442,86.1884766 C244.1609,85.4951172 244.304129,84.5201823 244.304129,83.2636719 C244.304129,81.5709635 244.157645,80.4951172 243.864676,80.0361328 C243.571708,79.5771484 243.125744,79.2467448 242.526786,79.0449219 C243.132254,78.719401 243.555432,78.3597005 243.796317,77.9658203 C244.037202,77.5719401 244.157645,76.9322917 244.157645,76.046875 C244.157645,74.7382812 243.822359,73.7161458 243.151786,72.9804688 C242.481213,72.2447917 241.205171,71.8769531 239.323661,71.8769531 C237.819754,71.8769531 236.722749,72.1422526 236.032645,72.6728516 C235.342541,73.2034505 234.997489,74.2239583 234.997489,75.734375 L234.997489,75.734375 L234.997489,77.0820312 L238.942801,77.0820312 L238.942801,75.7832031 C238.942801,75.1777344 238.993257,74.7822266 239.094169,74.5966797 C239.19508,74.4111328 239.382254,74.3183594 239.655692,74.3183594 C239.896577,74.3183594 240.073986,74.40625 240.187919,74.5820312 C240.301851,74.7578125 240.358817,75.1223958 240.358817,75.6757812 L240.358817,75.6757812 L240.358817,76.5546875 C240.358817,77.0690104 240.309989,77.4466146 240.212333,77.6875 C240.114676,77.9283854 239.955171,78.0846354 239.733817,78.15625 C239.512463,78.2278646 238.933036,78.2636719 237.995536,78.2636719 L237.995536,78.2636719 L237.995536,80.5585938 C238.763765,80.5716146 239.281343,80.6220703 239.54827,80.7099609 C239.815197,80.7978516 240.01702,80.9817708 240.153739,81.2617188 C240.290458,81.5416667 240.358817,81.984375 240.358817,82.5898438 L240.358817,82.5898438 L240.358817,83.6835938 C240.358817,84.6731771 240.309989,85.2851562 240.212333,85.5195312 C240.114676,85.7539062 239.912853,85.8710938 239.606864,85.8710938 C239.326916,85.8710938 239.146252,85.7783203 239.064872,85.5927734 C238.983491,85.4072266 238.942801,84.9726562 238.942801,84.2890625 L238.942801,84.2890625 L238.942801,81.7207031 L234.997489,81.7207031 L234.997489,82.9707031 C234.997489,84.4746094 235.109794,85.5309245 235.334403,86.1396484 C235.559012,86.7483724 236.027762,87.2626953 236.740653,87.6826172 C237.453544,88.1025391 238.434989,88.3125 239.684989,88.3125 Z" id="3" fill="#000000" fill-rule="nonzero"></path>
        <path d="M328.469169,88 L328.469169,85.2167969 L329.592215,85.2167969 L329.592215,82.5214844 L328.469169,82.5214844 L328.469169,72.1894531 L323.244559,72.1894531 L319.836356,82.5214844 L319.836356,85.2167969 L324.523856,85.2167969 L324.523856,88 L328.469169,88 Z M324.523856,82.5214844 L322.785575,82.5214844 L324.523856,75.7929688 L324.523856,82.5214844 Z" id="4" fill="#000000" fill-rule="nonzero"></path>
        <path id="Line" d="M205.955755,12.3467352 C261.571132,12.3467352 304.573785,24.0701301 334.971678,47.5794855 L335.888969,48.2954978 L342.027,53.586 L338.643378,44.2291257 C338.468956,43.7468627 338.688227,43.2180919 339.13627,42.9946193 L339.24365,42.9486284 C339.725913,42.7742064 340.254684,42.9934768 340.478157,43.4415199 L340.524147,43.5489004 L345.206876,56.4962767 L345.811521,58.1680718 L344.068821,57.8166579 L330.572317,55.0951 C330.03093,54.9859297 329.680548,54.4585485 329.789719,53.9171611 C329.891091,53.4144443 330.353064,53.0764215 330.852008,53.1181053 L330.967658,53.1345628 L340.723,55.102 L334.617272,49.8384955 C304.597406,26.1894617 261.718847,14.3467352 205.955755,14.3467352 C150.58644,14.3467352 106.052177,27.6833635 72.318349,54.3372796 C71.8850074,54.6796733 71.2561496,54.6059455 70.9137558,54.1726039 C70.5713621,53.7392622 70.6450899,53.1104045 71.0784316,52.7680107 C105.192007,25.8140468 150.162654,12.3467352 205.955755,12.3467352 Z" fill="#000000" fill-rule="nonzero"></path>
        <path id="Line-Copy" d="M240.128463,26.3467352 C265.410454,26.3467352 290.369294,33.8440838 315.013861,48.8386342 L315.89389,49.3773414 L322.681,53.828 L318.104247,44.9930185 C317.868341,44.5376628 318.016682,43.9847859 318.431705,43.7047178 L318.532161,43.645098 C318.987516,43.4091917 319.540393,43.5575332 319.820461,43.9725565 L319.880081,44.0730117 L326.213487,56.2980055 L327.031271,57.8765248 L325.257604,57.7556966 L311.521271,56.8199306 C310.970263,56.7823941 310.554013,56.3052848 310.591549,55.7542771 C310.626404,55.2426271 311.040279,54.8471707 311.540394,54.8233413 L311.657203,54.8245554 L321.585,55.5 L314.821145,51.0650645 C290.219622,35.9143793 265.326991,28.3467352 240.128463,28.3467352 C206.223611,28.3467352 178.98047,37.3084462 158.354005,55.2174447 C157.936977,55.5795305 157.30538,55.5349913 156.943294,55.1179634 C156.581209,54.7009355 156.625748,54.069339 157.042776,53.7072531 C178.056403,35.4621 205.766644,26.3467352 240.128463,26.3467352 Z" fill="#000000" fill-rule="nonzero"></path>
        <path id="Line-Copy-2" d="M298.864114,44.3936725 L298.931436,44.4891374 L306.204986,56.1792174 L307.144163,57.6886674 L305.366485,57.7074489 L291.599083,57.8529041 C291.046829,57.8587388 290.594409,57.4157784 290.588574,56.8635245 C290.583156,56.3507173 290.96471,55.9239912 291.46141,55.8609751 L291.577954,55.8530157 L301.53,55.748 L294.457422,51.8641924 C287.63243,48.8509621 280.751699,47.3467352 273.807579,47.3467352 C261.557941,47.3467352 251.745709,50.3938599 244.332314,56.4703425 C243.905179,56.8204488 243.275101,56.758005 242.924995,56.3308704 C242.574888,55.9037357 242.637332,55.2736574 243.064467,54.9235511 C250.860926,48.5330849 261.121486,45.3467352 273.807579,45.3467352 C280.794134,45.3467352 287.713053,46.8083984 294.627104,49.7618277 L295.342335,50.0726775 L302.49,53.994 L297.233304,45.5457121 C296.96238,45.1102808 297.066861,44.5474649 297.458618,44.2356808 L297.554083,44.1683591 C297.989514,43.8974344 298.55233,44.0019159 298.864114,44.3936725 Z" fill="#000000" fill-rule="nonzero"></path>
    </g>
</svg>