<?xml version="1.0" encoding="UTF-8"?>
<svg width="393px" height="135px" viewBox="0 0 393 135" version="1.1" xmlns="http://www.w3.org/2000/svg" xmlns:xlink="http://www.w3.org/1999/xlink">
    <title>Artboard</title>
    <g id="Artboard" stroke="none" stroke-width="1" fill="none" fill-rule="evenodd">
        <rect id="Rectangle" stroke="#000000" stroke-width="2" x="47" y="64" width="45" height="32" rx="3"></rect>
        <rect id="Rectangle-Copy-2" stroke="#000000" stroke-width="2" x="217" y="64" width="45" height="32" rx="3"></rect>
        <rect id="Rectangle-Copy" stroke="#000000" stroke-width="2" x="132" y="64" width="45" height="32" rx="3"></rect>
        <rect id="Rectangle-Copy-3" stroke="#000000" stroke-width="2" x="302" y="64" width="45" height="32" rx="3"></rect>
        <path d="M72.6928013,88 L72.6928013,72.1894531 L70.3685826,72.1894531 C69.3789992,73.4654948 67.9304315,74.3085938 66.0228795,74.71875 L66.0228795,74.71875 L66.0228795,76.5644531 L66.4135045,76.5644531 C67.3249628,76.5644531 67.9125279,76.6279297 68.1761998,76.7548828 C68.4398716,76.8818359 68.6010045,77.0690104 68.6595982,77.3164062 C68.718192,77.5638021 68.7474888,78.2994792 68.7474888,79.5234375 L68.7474888,88 L72.6928013,88 Z" id="1" fill="#000000" fill-rule="nonzero"></path>
        <path d="M158.903739,88 L158.903739,85.3046875 L154.577567,85.3046875 C156.791109,82.0299479 158.124116,79.8880208 158.57659,78.8789062 C159.029064,77.8697917 159.255301,76.9127604 159.255301,76.0078125 C159.255301,74.8164062 158.853283,73.8317057 158.049247,73.0537109 C157.24521,72.2757161 156.058687,71.8867188 154.489676,71.8867188 C153.688895,71.8867188 153.002046,72.0136719 152.429129,72.2675781 C151.856213,72.5214844 151.390718,72.8958333 151.032645,73.390625 C150.674572,73.8854167 150.449963,74.3883464 150.358817,74.8994141 C150.267671,75.4104818 150.222098,76.108724 150.222098,76.9941406 L150.222098,76.9941406 L150.222098,77.5703125 L153.757254,77.5703125 L153.757254,76.0664062 C153.757254,75.3697917 153.830497,74.9042969 153.976981,74.6699219 C154.123465,74.4355469 154.346447,74.3183594 154.645926,74.3183594 C154.945405,74.3183594 155.168387,74.4241536 155.314872,74.6357422 C155.461356,74.8473307 155.534598,75.1679688 155.534598,75.5976562 C155.534598,76.1575521 155.292085,76.9371745 154.807059,77.9365234 C154.322033,78.9358724 152.793713,81.5384115 150.222098,85.7441406 L150.222098,85.7441406 L150.222098,88 L158.903739,88 Z" id="2" fill="#000000" fill-rule="nonzero"></path>
        <path d="M239.684989,88.3125 C240.785249,88.3125 241.686942,88.1318359 242.390067,87.7705078 C243.093192,87.4091797 243.587984,86.8818359 243.874442,86.1884766 C244.1609,85.4951172 244.304129,84.5201823 244.304129,83.2636719 C244.304129,81.5709635 244.157645,80.4951172 243.864676,80.0361328 C243.571708,79.5771484 243.125744,79.2467448 242.526786,79.0449219 C243.132254,78.719401 243.555432,78.3597005 243.796317,77.9658203 C244.037202,77.5719401 244.157645,76.9322917 244.157645,76.046875 C244.157645,74.7382812 243.822359,73.7161458 243.151786,72.9804688 C242.481213,72.2447917 241.205171,71.8769531 239.323661,71.8769531 C237.819754,71.8769531 236.722749,72.1422526 236.032645,72.6728516 C235.342541,73.2034505 234.997489,74.2239583 234.997489,75.734375 L234.997489,75.734375 L234.997489,77.0820312 L238.942801,77.0820312 L238.942801,75.7832031 C238.942801,75.1777344 238.993257,74.7822266 239.094169,74.5966797 C239.19508,74.4111328 239.382254,74.3183594 239.655692,74.3183594 C239.896577,74.3183594 240.073986,74.40625 240.187919,74.5820312 C240.301851,74.7578125 240.358817,75.1223958 240.358817,75.6757812 L240.358817,75.6757812 L240.358817,76.5546875 C240.358817,77.0690104 240.309989,77.4466146 240.212333,77.6875 C240.114676,77.9283854 239.955171,78.0846354 239.733817,78.15625 C239.512463,78.2278646 238.933036,78.2636719 237.995536,78.2636719 L237.995536,78.2636719 L237.995536,80.5585938 C238.763765,80.5716146 239.281343,80.6220703 239.54827,80.7099609 C239.815197,80.7978516 240.01702,80.9817708 240.153739,81.2617188 C240.290458,81.5416667 240.358817,81.984375 240.358817,82.5898438 L240.358817,82.5898438 L240.358817,83.6835938 C240.358817,84.6731771 240.309989,85.2851562 240.212333,85.5195312 C240.114676,85.7539062 239.912853,85.8710938 239.606864,85.8710938 C239.326916,85.8710938 239.146252,85.7783203 239.064872,85.5927734 C238.983491,85.4072266 238.942801,84.9726562 238.942801,84.2890625 L238.942801,84.2890625 L238.942801,81.7207031 L234.997489,81.7207031 L234.997489,82.9707031 C234.997489,84.4746094 235.109794,85.5309245 235.334403,86.1396484 C235.559012,86.7483724 236.027762,87.2626953 236.740653,87.6826172 C237.453544,88.1025391 238.434989,88.3125 239.684989,88.3125 Z" id="3" fill="#000000" fill-rule="nonzero"></path>
        <path d="M328.469169,88 L328.469169,85.2167969 L329.592215,85.2167969 L329.592215,82.5214844 L328.469169,82.5214844 L328.469169,72.1894531 L323.244559,72.1894531 L319.836356,82.5214844 L319.836356,85.2167969 L324.523856,85.2167969 L324.523856,88 L328.469169,88 Z M324.523856,82.5214844 L322.785575,82.5214844 L324.523856,75.7929688 L324.523856,82.5214844 Z" id="4" fill="#000000" fill-rule="nonzero"></path>
        <path id="Line" d="M112,40.6993055 C122.676473,40.6993055 133.232929,43.4999016 143.708638,49.1211097 L144.422766,49.5087449 L151.291,53.86 L146.576191,45.0979757 C146.333163,44.6463809 146.472803,44.0912425 146.883377,43.8046912 L146.982884,43.7435012 C147.434479,43.500473 147.989617,43.6401135 148.276168,44.0506874 L148.337358,44.1501938 L154.861969,56.2742178 L155.704441,57.8396997 L153.929096,57.7467407 L140.179761,57.0268108 C139.628232,56.9979322 139.20454,56.5274186 139.233419,55.9758894 C139.260234,55.4637552 139.667848,55.0618479 140.167527,55.0301674 L140.28434,55.0295469 L150.222,55.549 L143.40648,51.2301465 C133.037381,45.539421 122.572565,42.6993055 112,42.6993055 C95.5459983,42.6993055 82.3509576,47.1833633 72.3661039,56.1393805 C71.954973,56.5081485 71.3227401,56.4738067 70.953972,56.0626758 C70.585204,55.651545 70.6195458,55.019312 71.0306767,54.650544 C81.4044454,45.3456855 95.0771445,40.6993055 112,40.6993055 Z" fill="#000000" fill-rule="nonzero"></path>
        <path id="Line-Copy" d="M198,40.6993055 C208.676473,40.6993055 219.232929,43.4999016 229.708638,49.1211097 L230.422766,49.5087449 L237.291,53.86 L232.576191,45.0979757 C232.333163,44.6463809 232.472803,44.0912425 232.883377,43.8046912 L232.982884,43.7435012 C233.434479,43.500473 233.989617,43.6401135 234.276168,44.0506874 L234.337358,44.1501938 L240.861969,56.2742178 L241.704441,57.8396997 L239.929096,57.7467407 L226.179761,57.0268108 C225.628232,56.9979322 225.20454,56.5274186 225.233419,55.9758894 C225.260234,55.4637552 225.667848,55.0618479 226.167527,55.0301674 L226.28434,55.0295469 L236.222,55.549 L229.40648,51.2301465 C219.037381,45.539421 208.572565,42.6993055 198,42.6993055 C181.545998,42.6993055 168.350958,47.1833633 158.366104,56.1393805 C157.954973,56.5081485 157.32274,56.4738067 156.953972,56.0626758 C156.585204,55.651545 156.619546,55.019312 157.030677,54.650544 C167.404445,45.3456855 181.077144,40.6993055 198,40.6993055 Z" fill="#000000" fill-rule="nonzero"></path>
        <path id="Line-Copy-2" d="M284,40.6993055 C294.676473,40.6993055 305.232929,43.4999016 315.708638,49.1211097 L316.422766,49.5087449 L323.291,53.86 L318.576191,45.0979757 C318.333163,44.6463809 318.472803,44.0912425 318.883377,43.8046912 L318.982884,43.7435012 C319.434479,43.500473 319.989617,43.6401135 320.276168,44.0506874 L320.337358,44.1501938 L326.861969,56.2742178 L327.704441,57.8396997 L325.929096,57.7467407 L312.179761,57.0268108 C311.628232,56.9979322 311.20454,56.5274186 311.233419,55.9758894 C311.260234,55.4637552 311.667848,55.0618479 312.167527,55.0301674 L312.28434,55.0295469 L322.222,55.549 L315.40648,51.2301465 C305.037381,45.539421 294.572565,42.6993055 284,42.6993055 C267.545998,42.6993055 254.350958,47.1833633 244.366104,56.1393805 C243.954973,56.5081485 243.32274,56.4738067 242.953972,56.0626758 C242.585204,55.651545 242.619546,55.019312 243.030677,54.650544 C253.404445,45.3456855 267.077144,40.6993055 284,40.6993055 Z" fill="#000000" fill-rule="nonzero"></path>
    </g>
</svg>