<?xml version="1.0" encoding="UTF-8"?>
<svg width="576px" height="142px" viewBox="0 0 576 142" version="1.1" xmlns="http://www.w3.org/2000/svg" xmlns:xlink="http://www.w3.org/1999/xlink">
    <title>Artboard Copy 2</title>
    <g id="Artboard-Copy-2" stroke="none" stroke-width="1" fill="none" fill-rule="evenodd">
        <path d="M132.449062,91 L132.449062,76.65625 L141.364687,76.65625 C143.858437,76.65625 146.024062,76.1546875 147.861562,75.1515625 C149.699062,74.1484375 151.128749,72.7421875 152.150624,70.9328125 C153.172499,69.1234375 153.683437,67.028125 153.683437,64.646875 C153.683437,62.265625 153.172499,60.175 152.150624,58.375 C151.128749,56.575 149.699062,55.1640625 147.861562,54.1421875 C146.024062,53.1203125 143.867812,52.609375 141.392812,52.609375 L127.274062,52.609375 L127.274062,91 L132.449062,91 Z M138.130312,72.15625 L132.449062,72.15625 L132.449062,57.1375 L140.914687,57.1375 C143.277187,57.1375 145.109999,57.7890625 146.413124,59.0921875 C147.716249,60.3953125 148.367812,62.246875 148.367812,64.646875 C148.367812,66.709375 147.964687,68.284375 147.158437,69.371875 C146.352187,70.459375 145.184999,71.1953125 143.656874,71.5796875 C142.128749,71.9640625 140.286562,72.15625 138.130312,72.15625 Z M172.688437,91 L172.688437,72.83125 C172.688437,71.5 172.899374,70.2859375 173.321249,69.1890625 C173.743124,68.0921875 174.450937,67.215625 175.444687,66.559375 C176.438437,65.903125 177.797812,65.575 179.522812,65.575 C179.991562,65.575 180.446249,65.5890625 180.886874,65.6171875 C181.327499,65.6453125 181.679062,65.6875 181.941562,65.74375 L181.941562,61.103125 C181.641562,61.065625 181.336874,61.0328125 181.027499,61.0046875 C180.718124,60.9765625 180.404062,60.9625 180.085312,60.9625 C178.679062,60.9625 177.488437,61.1828125 176.513437,61.6234375 C175.538437,62.0640625 174.750937,62.603125 174.150937,63.240625 C173.550937,63.878125 173.110312,64.496875 172.829062,65.096875 L172.660312,65.096875 L172.660312,61.4125 L167.569687,61.4125 L167.569687,91 L172.688437,91 Z M206.487187,91.478125 C209.262187,91.478125 211.596562,90.8734375 213.490312,89.6640625 C215.384062,88.4546875 216.818437,86.7859375 217.793437,84.6578125 C218.768437,82.5296875 219.255937,80.125 219.255937,77.44375 L219.255937,74.85625 C219.255937,72.2125 218.768437,69.840625 217.793437,67.740625 C216.818437,65.640625 215.384062,63.98125 213.490312,62.7625 C211.596562,61.54375 209.262187,60.934375 206.487187,60.934375 C203.712187,60.934375 201.373125,61.54375 199.47,62.7625 C197.566875,63.98125 196.127812,65.640625 195.152812,67.740625 C194.177812,69.840625 193.690312,72.2125 193.690312,74.85625 L193.690312,77.44375 C193.690312,80.125 194.173125,82.5296875 195.13875,84.6578125 C196.104375,86.7859375 197.543437,88.4546875 199.455937,89.6640625 C201.368437,90.8734375 203.712187,91.478125 206.487187,91.478125 Z M206.487187,87.146875 C204.818437,87.146875 203.412187,86.734375 202.268437,85.909375 C201.124687,85.084375 200.2575,83.9359375 199.666875,82.4640625 C199.07625,80.9921875 198.780937,79.28125 198.780937,77.33125 L198.780937,75.025 C198.780937,73.0375 199.07625,71.3125 199.666875,69.85 C200.2575,68.3875 201.129375,67.253125 202.2825,66.446875 C203.435625,65.640625 204.837187,65.2375 206.487187,65.2375 C208.155937,65.2375 209.5575,65.640625 210.691875,66.446875 C211.82625,67.253125 212.684062,68.3875 213.265312,69.85 C213.846562,71.3125 214.137187,73.0375 214.137187,75.025 L214.137187,77.33125 C214.137187,79.3 213.846562,81.015625 213.265312,82.478125 C212.684062,83.940625 211.82625,85.084375 210.691875,85.909375 C209.5575,86.734375 208.155937,87.146875 206.487187,87.146875 Z M245.826562,101.828125 C247.495312,101.828125 249.089062,101.598437 250.607812,101.139062 C252.126562,100.679688 253.476562,99.9765625 254.657812,99.0296875 C255.839062,98.0828125 256.776562,96.9015625 257.470312,95.4859375 C258.164062,94.0703125 258.510937,92.40625 258.510937,90.49375 L258.510937,61.4125 L253.560937,61.4125 L253.560937,65.603125 L253.420312,65.603125 C252.970312,64.759375 252.328125,63.9859375 251.49375,63.2828125 C250.659375,62.5796875 249.675,62.0171875 248.540625,61.5953125 C247.40625,61.1734375 246.164062,60.9625 244.814062,60.9625 C242.507812,60.9625 240.46875,61.4921875 238.696875,62.5515625 C236.925,63.6109375 235.542187,65.153125 234.548437,67.178125 C233.554687,69.203125 233.057812,71.66875 233.057812,74.575 L233.057812,76.99375 C233.057812,79.9375 233.559375,82.43125 234.5625,84.475 C235.565625,86.51875 236.953125,88.0703125 238.725,89.1296875 C240.496875,90.1890625 242.526562,90.71875 244.814062,90.71875 C245.826562,90.71875 246.778125,90.596875 247.66875,90.353125 C248.559375,90.109375 249.375,89.771875 250.115625,89.340625 C250.85625,88.909375 251.49375,88.4125 252.028125,87.85 C252.5625,87.2875 252.970312,86.6875 253.251562,86.05 L253.420312,86.05 L253.420312,90.38125 C253.420312,92.66875 252.735937,94.4546875 251.367187,95.7390625 C249.998437,97.0234375 248.151562,97.665625 245.826562,97.665625 C244.514062,97.665625 243.370312,97.4546875 242.395312,97.0328125 C241.420312,96.6109375 240.6375,96.053125 240.046875,95.359375 C239.45625,94.665625 239.067187,93.934375 238.879687,93.165625 L233.676562,93.165625 C233.901562,94.796875 234.4875,96.26875 235.434375,97.58125 C236.38125,98.89375 237.717187,99.9296875 239.442187,100.689063 C241.167187,101.448438 243.295312,101.828125 245.826562,101.828125 Z M245.910937,86.44375 C244.279687,86.44375 242.8875,86.0546875 241.734375,85.2765625 C240.58125,84.4984375 239.7,83.3875 239.090625,81.94375 C238.48125,80.5 238.176562,78.775 238.176562,76.76875 L238.176562,74.940625 C238.176562,72.878125 238.48125,71.134375 239.090625,69.709375 C239.7,68.284375 240.58125,67.1921875 241.734375,66.4328125 C242.8875,65.6734375 244.279687,65.29375 245.910937,65.29375 C247.448437,65.29375 248.775,65.6875 249.890625,66.475 C251.00625,67.2625 251.873437,68.378125 252.492187,69.821875 C253.110937,71.265625 253.420312,72.971875 253.420312,74.940625 L253.420312,76.76875 C253.420312,78.775 253.125,80.4953125 252.534375,81.9296875 C251.94375,83.3640625 251.090625,84.475 249.975,85.2625 C248.859375,86.05 247.504687,86.44375 245.910937,86.44375 Z M279.822187,91 L279.822187,72.83125 C279.822187,71.5 280.033125,70.2859375 280.455,69.1890625 C280.876875,68.0921875 281.584687,67.215625 282.578437,66.559375 C283.572187,65.903125 284.931562,65.575 286.656562,65.575 C287.125312,65.575 287.58,65.5890625 288.020625,65.6171875 C288.46125,65.6453125 288.812812,65.6875 289.075312,65.74375 L289.075312,61.103125 C288.775312,61.065625 288.470625,61.0328125 288.16125,61.0046875 C287.851875,60.9765625 287.537812,60.9625 287.219062,60.9625 C285.812812,60.9625 284.622187,61.1828125 283.647187,61.6234375 C282.672187,62.0640625 281.884687,62.603125 281.284687,63.240625 C280.684687,63.878125 280.244062,64.496875 279.962812,65.096875 L279.794062,65.096875 L279.794062,61.4125 L274.703437,61.4125 L274.703437,91 L279.822187,91 Z M313.311562,91.478125 C314.999062,91.478125 316.50375,91.2578125 317.825625,90.8171875 C319.1475,90.3765625 320.295937,89.7671875 321.270937,88.9890625 C322.245937,88.2109375 323.042812,87.3015625 323.661562,86.2609375 C324.280312,85.2203125 324.720937,84.090625 324.983437,82.871875 L319.977187,82.871875 C319.658437,83.771875 319.20375,84.5546875 318.613125,85.2203125 C318.0225,85.8859375 317.295937,86.396875 316.433437,86.753125 C315.570937,87.109375 314.577187,87.2875 313.452187,87.2875 C311.089687,87.2875 309.242812,86.425 307.911562,84.7 C306.580312,82.975 305.914687,80.74375 305.914687,78.00625 L305.914687,77.44375 L325.377187,77.44375 L325.377187,74.6875 C325.377187,71.95 324.894375,69.55 323.92875,67.4875 C322.963125,65.425 321.56625,63.8171875 319.738125,62.6640625 C317.91,61.5109375 315.702187,60.934375 313.114687,60.934375 C310.508437,60.934375 308.29125,61.50625 306.463125,62.65 C304.635,63.79375 303.238125,65.36875 302.2725,67.375 C301.306875,69.38125 300.824062,71.70625 300.824062,74.35 L300.824062,77.6125 C300.824062,80.425 301.325625,82.871875 302.32875,84.953125 C303.331875,87.034375 304.770937,88.6421875 306.645937,89.7765625 C308.520937,90.9109375 310.742812,91.478125 313.311562,91.478125 Z M320.314687,73.45 L305.914687,73.45 L305.914687,73.365625 L305.914687,73.365625 C305.914687,71.828125 306.21,70.4359375 306.800625,69.1890625 C307.39125,67.9421875 308.225625,66.953125 309.30375,66.221875 C310.381875,65.490625 311.652187,65.125 313.114687,65.125 C314.558437,65.125 315.819375,65.490625 316.8975,66.221875 C317.975625,66.953125 318.814687,67.9421875 319.414687,69.1890625 C320.014687,70.4359375 320.314687,71.828125 320.314687,73.365625 L320.314687,73.45 L320.314687,73.45 Z M349.613438,91.478125 C351.957188,91.478125 354.015,91.121875 355.786875,90.409375 C357.55875,89.696875 358.936875,88.646875 359.92125,87.259375 C360.905625,85.871875 361.397813,84.19375 361.397813,82.225 C361.397813,80.3125 360.938438,78.8171875 360.019688,77.7390625 C359.100938,76.6609375 357.8775,75.8453125 356.349375,75.2921875 C354.82125,74.7390625 353.138438,74.303125 351.300938,73.984375 C350.457188,73.834375 349.599375,73.6609375 348.7275,73.4640625 C347.855625,73.2671875 347.063438,73.0046875 346.350938,72.6765625 C345.638438,72.3484375 345.061875,71.921875 344.62125,71.396875 C344.180625,70.871875 343.960313,70.196875 343.960313,69.371875 C343.960313,67.946875 344.513438,66.8640625 345.619688,66.1234375 C346.725938,65.3828125 348.141563,65.0125 349.866563,65.0125 C351.366563,65.0125 352.547813,65.25625 353.410313,65.74375 C354.272813,66.23125 354.89625,66.8453125 355.280625,67.5859375 C355.665,68.3265625 355.885313,69.071875 355.941563,69.821875 L360.638438,69.821875 C360.638438,68.153125 360.235313,66.6484375 359.429063,65.3078125 C358.622813,63.9671875 357.436875,62.903125 355.87125,62.115625 C354.305625,61.328125 352.369688,60.934375 350.063438,60.934375 C348.150938,60.934375 346.350938,61.24375 344.663438,61.8625 C342.975938,62.48125 341.611875,63.4515625 340.57125,64.7734375 C339.530625,66.0953125 339.010313,67.80625 339.010313,69.90625 C339.010313,71.6875 339.460313,73.1125 340.360313,74.18125 C341.260313,75.25 342.469688,76.0796875 343.988438,76.6703125 C345.507188,77.2609375 347.175938,77.74375 348.994688,78.11875 C350.363438,78.38125 351.610313,78.671875 352.735313,78.990625 C353.860313,79.309375 354.755625,79.759375 355.42125,80.340625 C356.086875,80.921875 356.419688,81.765625 356.419688,82.871875 C356.419688,83.678125 356.19,84.428125 355.730625,85.121875 C355.27125,85.815625 354.568125,86.36875 353.62125,86.78125 C352.674375,87.19375 351.460313,87.4 349.979063,87.4 C348.704063,87.4 347.6025,87.2171875 346.674375,86.8515625 C345.74625,86.4859375 345.015,85.975 344.480625,85.31875 C343.94625,84.6625 343.604063,83.89375 343.454063,83.0125 L338.475938,83.0125 C338.475938,84.775 338.944688,86.2890625 339.882188,87.5546875 C340.819688,88.8203125 342.122813,89.790625 343.791563,90.465625 C345.460313,91.140625 347.400938,91.478125 349.613438,91.478125 Z M385.268438,91.478125 C387.612188,91.478125 389.67,91.121875 391.441875,90.409375 C393.21375,89.696875 394.591875,88.646875 395.57625,87.259375 C396.560625,85.871875 397.052813,84.19375 397.052813,82.225 C397.052813,80.3125 396.593438,78.8171875 395.674688,77.7390625 C394.755938,76.6609375 393.5325,75.8453125 392.004375,75.2921875 C390.47625,74.7390625 388.793438,74.303125 386.955938,73.984375 C386.112188,73.834375 385.254375,73.6609375 384.3825,73.4640625 C383.510625,73.2671875 382.718438,73.0046875 382.005938,72.6765625 C381.293438,72.3484375 380.716875,71.921875 380.27625,71.396875 C379.835625,70.871875 379.615313,70.196875 379.615313,69.371875 C379.615313,67.946875 380.168438,66.8640625 381.274688,66.1234375 C382.380938,65.3828125 383.796563,65.0125 385.521563,65.0125 C387.021563,65.0125 388.202813,65.25625 389.065313,65.74375 C389.927813,66.23125 390.55125,66.8453125 390.935625,67.5859375 C391.32,68.3265625 391.540313,69.071875 391.596563,69.821875 L396.293438,69.821875 C396.293438,68.153125 395.890313,66.6484375 395.084063,65.3078125 C394.277813,63.9671875 393.091875,62.903125 391.52625,62.115625 C389.960625,61.328125 388.024688,60.934375 385.718438,60.934375 C383.805938,60.934375 382.005938,61.24375 380.318438,61.8625 C378.630938,62.48125 377.266875,63.4515625 376.22625,64.7734375 C375.185625,66.0953125 374.665313,67.80625 374.665313,69.90625 C374.665313,71.6875 375.115313,73.1125 376.015313,74.18125 C376.915313,75.25 378.124688,76.0796875 379.643438,76.6703125 C381.162188,77.2609375 382.830938,77.74375 384.649688,78.11875 C386.018438,78.38125 387.265313,78.671875 388.390313,78.990625 C389.515313,79.309375 390.410625,79.759375 391.07625,80.340625 C391.741875,80.921875 392.074688,81.765625 392.074688,82.871875 C392.074688,83.678125 391.845,84.428125 391.385625,85.121875 C390.92625,85.815625 390.223125,86.36875 389.27625,86.78125 C388.329375,87.19375 387.115313,87.4 385.634063,87.4 C384.359063,87.4 383.2575,87.2171875 382.329375,86.8515625 C381.40125,86.4859375 380.67,85.975 380.135625,85.31875 C379.60125,84.6625 379.259063,83.89375 379.109063,83.0125 L374.130938,83.0125 C374.130938,84.775 374.599688,86.2890625 375.537188,87.5546875 C376.474688,88.8203125 377.777813,89.790625 379.446563,90.465625 C381.115313,91.140625 383.055938,91.478125 385.268438,91.478125 Z M414.314063,57.41875 C415.214063,57.41875 415.978125,57.1140625 416.60625,56.5046875 C417.234375,55.8953125 417.548438,55.15 417.548438,54.26875 C417.548438,53.36875 417.234375,52.6140625 416.60625,52.0046875 C415.978125,51.3953125 415.214063,51.090625 414.314063,51.090625 C413.432813,51.090625 412.678125,51.3953125 412.05,52.0046875 C411.421875,52.6140625 411.107813,53.36875 411.107813,54.26875 C411.107813,55.15 411.421875,55.8953125 412.05,56.5046875 C412.678125,57.1140625 413.432813,57.41875 414.314063,57.41875 Z M416.873438,91 L416.873438,61.4125 L411.782813,61.4125 L411.782813,91 L416.873438,91 Z M444.906563,91.478125 C447.681563,91.478125 450.015938,90.8734375 451.909688,89.6640625 C453.803438,88.4546875 455.237813,86.7859375 456.212813,84.6578125 C457.187813,82.5296875 457.675313,80.125 457.675313,77.44375 L457.675313,74.85625 C457.675313,72.2125 457.187813,69.840625 456.212813,67.740625 C455.237813,65.640625 453.803438,63.98125 451.909688,62.7625 C450.015938,61.54375 447.681563,60.934375 444.906563,60.934375 C442.131563,60.934375 439.7925,61.54375 437.889375,62.7625 C435.98625,63.98125 434.547188,65.640625 433.572188,67.740625 C432.597188,69.840625 432.109688,72.2125 432.109688,74.85625 L432.109688,77.44375 C432.109688,80.125 432.5925,82.5296875 433.558125,84.6578125 C434.52375,86.7859375 435.962813,88.4546875 437.875313,89.6640625 C439.787813,90.8734375 442.131563,91.478125 444.906563,91.478125 Z M444.906563,87.146875 C443.237813,87.146875 441.831563,86.734375 440.687813,85.909375 C439.544063,85.084375 438.676875,83.9359375 438.08625,82.4640625 C437.495625,80.9921875 437.200313,79.28125 437.200313,77.33125 L437.200313,75.025 C437.200313,73.0375 437.495625,71.3125 438.08625,69.85 C438.676875,68.3875 439.54875,67.253125 440.701875,66.446875 C441.855,65.640625 443.256563,65.2375 444.906563,65.2375 C446.575313,65.2375 447.976875,65.640625 449.11125,66.446875 C450.245625,67.253125 451.103438,68.3875 451.684688,69.85 C452.265938,71.3125 452.556563,73.0375 452.556563,75.025 L452.556563,77.33125 C452.556563,79.3 452.265938,81.015625 451.684688,82.478125 C451.103438,83.940625 450.245625,85.084375 449.11125,85.909375 C447.976875,86.734375 446.575313,87.146875 444.906563,87.146875 Z M477.720938,91 L477.720938,73.05625 C477.720938,71.70625 477.969376,70.459375 478.466251,69.315625 C478.963126,68.171875 479.741251,67.2484375 480.800626,66.5453125 C481.860001,65.8421875 483.214688,65.490625 484.864688,65.490625 C486.270938,65.490625 487.503751,65.7671875 488.563126,66.3203125 C489.622501,66.8734375 490.452188,67.6984375 491.052188,68.7953125 C491.652188,69.8921875 491.952188,71.265625 491.952188,72.915625 L491.952188,91 L497.042813,91 L497.042813,72.015625 C497.042813,68.415625 496.039688,65.66875 494.033438,63.775 C492.027188,61.88125 489.505313,60.934375 486.467813,60.934375 C484.874063,60.934375 483.495938,61.1734375 482.333438,61.6515625 C481.170938,62.1296875 480.219376,62.7109375 479.478751,63.3953125 C478.738126,64.0796875 478.189688,64.740625 477.833438,65.378125 L477.692813,65.378125 L477.692813,61.4125 L472.630313,61.4125 L472.630313,91 L477.720938,91 Z" id="Progression" fill="#000000" fill-rule="nonzero"></path>
        <g id="Group" transform="translate(51.600000, 43.200000)">
            <polygon id="Path" fill="#40444B" points="35.1917525 57.8736354 35.1917525 23.0418918 9.06267601 8.57318269 23.6410014 0 49.7298494 14.3591052 49.7298494 49.1511082"></polygon>
            <polygon id="Path" fill="#000000" points="35.1917525 57.8736354 35.1917525 23.0418918 49.7298494 14.3591052 49.7298494 49.1511082"></polygon>
            <polygon id="Path-Copy-2" fill="#40444B" points="19.0203476 58.08 19.0203476 33.6108379 0.361849403 23.4466269 10.772078 17.424 29.4018494 27.5112146 29.4018494 51.9524592"></polygon>
            <polygon id="Path-Copy-2" fill="#000000" points="19.0203476 58.08 19.0203476 33.6108379 29.4018494 27.5112146 29.4018494 51.9524592"></polygon>
            <polygon id="Path-2" fill="#000000" points="13.5630374 58.08 13.5630374 37.529373 0.361849403 29.559494 0.361849403 48.7749516"></polygon>
        </g>
    </g>
</svg>